<svg xmlns="http://www.w3.org/2000/svg" viewBox="0 0 32 32" width="32" height="32" role="img" aria-label="Business Partner AI">
    <defs>
        <linearGradient id="g" x1="0" y1="0" x2="1" y2="1">
            <stop offset="0" stop-color="#1B90FF"/>
            <stop offset="1" stop-color="#0057D2"/>
        </linearGradient>
    </defs>
    <rect x="1" y="1" width="30" height="30" rx="7" fill="url(#g)"/>
    <path d="M9 8h6.6c3 0 4.9 1.6 4.9 4.1 0 1.7-.9 2.9-2.4 3.4 1.9.4 3.1 1.8 3.1 3.8 0 2.7-2 4.4-5.2 4.4H9V8zm6 6.2c1.3 0 2.1-.7 2.1-1.8s-.8-1.7-2.1-1.7h-2.8v3.5H15zm.3 6.3c1.4 0 2.2-.7 2.2-1.9 0-1.1-.8-1.8-2.2-1.8h-3.1v3.7h3.1z" fill="#fff"/>
</svg>
